<svg width="666" height="155" viewBox="0 0 666 155" fill="none" xmlns="http://www.w3.org/2000/svg">
<circle cx="77.5" cy="77.5" r="76.5" fill="url(#paint0_linear_0_1)" stroke="#7352BA" stroke-width="2"/>
<path d="M240.232 123.768C260.456 123.768 275.304 112.248 278.632 93.688H266.856C263.528 106.232 253.928 113.528 240.104 113.528C221.288 113.528 209.768 98.808 209.768 78.2C209.768 57.464 221.8 42.872 240.616 42.872C254.056 42.872 263.528 50.296 266.984 62.712H278.76C275.432 44.152 260.968 32.632 241.128 32.632C215.144 32.632 198.376 51.064 198.376 78.2C198.376 105.592 214.504 123.768 240.232 123.768ZM320.623 123.768C339.695 123.768 353.007 110.2 353.007 90.36C353.007 70.52 339.695 56.952 320.623 56.952C301.551 56.952 288.239 70.52 288.239 90.36C288.239 110.2 301.551 123.768 320.623 123.768ZM320.623 114.424C307.695 114.424 298.991 104.312 298.991 90.36C298.991 76.408 307.695 66.296 320.623 66.296C333.551 66.296 342.255 76.408 342.255 90.36C342.255 104.312 333.551 114.424 320.623 114.424ZM362.105 101.496C362.361 115.832 374.009 123.768 390.905 123.768C405.369 123.768 417.017 116.216 417.017 104.056C417.017 89.592 405.113 86.776 390.265 84.984C380.793 83.832 373.881 82.936 373.881 75.768C373.881 69.752 380.025 65.912 389.113 65.912C398.073 65.912 404.217 70.904 404.985 77.56H415.737C414.713 63.992 403.961 57.08 389.113 56.952C374.393 56.824 363.513 64.632 363.513 76.536C363.513 90.104 375.161 93.048 389.753 94.84C399.481 95.992 406.649 96.632 406.649 104.824C406.649 110.84 400.121 114.808 390.905 114.808C380.025 114.808 373.241 109.176 372.857 101.496H362.105ZM501.5 56.952C489.852 56.952 482.812 62.328 478.844 69.368C475.132 61.048 467.324 56.952 458.236 56.952C448.124 56.952 442.62 61.944 439.164 66.68L437.756 57.72H428.668V123H439.164V88.568C439.164 75.512 445.692 66.552 456.444 66.552C466.428 66.552 472.188 73.208 472.188 86.008V123H482.684V88.056C482.684 74.744 489.34 66.552 500.22 66.552C510.076 66.552 515.708 73.208 515.708 86.008V123H526.204V85.368C526.204 64.76 515.068 56.952 501.5 56.952ZM568.998 123.768C588.07 123.768 601.382 110.2 601.382 90.36C601.382 70.52 588.07 56.952 568.998 56.952C549.926 56.952 536.614 70.52 536.614 90.36C536.614 110.2 549.926 123.768 568.998 123.768ZM568.998 114.424C556.07 114.424 547.366 104.312 547.366 90.36C547.366 76.408 556.07 66.296 568.998 66.296C581.926 66.296 590.63 76.408 590.63 90.36C590.63 104.312 581.926 114.424 568.998 114.424ZM610.48 101.496C610.736 115.832 622.384 123.768 639.28 123.768C653.744 123.768 665.392 116.216 665.392 104.056C665.392 89.592 653.488 86.776 638.64 84.984C629.168 83.832 622.256 82.936 622.256 75.768C622.256 69.752 628.4 65.912 637.488 65.912C646.448 65.912 652.592 70.904 653.36 77.56H664.112C663.088 63.992 652.336 57.08 637.488 56.952C622.768 56.824 611.888 64.632 611.888 76.536C611.888 90.104 623.536 93.048 638.128 94.84C647.856 95.992 655.024 96.632 655.024 104.824C655.024 110.84 648.496 114.808 639.28 114.808C628.4 114.808 621.616 109.176 621.232 101.496H610.48Z" fill="#7352BA"/>
<circle cx="7.50193" cy="77.1815" r="2.50193" fill="#7352BA"/>
<circle cx="35.0232" cy="93.583" r="2.22394" fill="#7352BA"/>
<circle cx="35.3012" cy="82.7413" r="2.50193" fill="#7352BA"/>
<circle cx="63.1004" cy="82.7413" r="2.50193" fill="#7352BA"/>
<circle cx="63.1004" cy="71.6216" r="2.50193" fill="#7352BA"/>
<circle cx="118.699" cy="77.1815" r="2.50193" fill="#7352BA"/>
<circle cx="146.498" cy="77.1815" r="2.50193" fill="#7352BA"/>
<circle cx="118.699" cy="88.3012" r="2.50193" fill="#7352BA"/>
<circle cx="107.5" cy="53.5" r="1.5" fill="#7352BA"/>
<circle cx="78.5" cy="40.5" r="1.5" fill="#7352BA"/>
<circle cx="103.5" cy="40.5" r="1.5" fill="#7352BA"/>
<circle cx="83.5" cy="56.5" r="1.5" fill="#C2AEF0"/>
<circle cx="73.5" cy="19.5" r="1.5" fill="#7352BA"/>
<circle cx="117.697" cy="25.0598" r="1.5" fill="#7352BA"/>
<circle cx="50.5" cy="32.5" r="1.5" fill="#7352BA"/>
<circle cx="95.5" cy="20.5" r="1.5" fill="#C2AEF0"/>
<circle cx="57.5" cy="48.5" r="1.5" fill="#C2AEF0"/>
<circle cx="29.5" cy="35.5" r="1.5" fill="#C2AEF0"/>
<circle cx="102.5" cy="125.5" r="1.5" fill="#7352BA"/>
<circle cx="87.5" cy="97.5" r="1.5" fill="#7352BA"/>
<circle cx="130.5" cy="50.5" r="1.5" fill="#7352BA"/>
<circle cx="120.5" cy="37.5" r="1.5" fill="#C2AEF0"/>
<circle cx="71.5" cy="113.5" r="1.5" fill="#7352BA"/>
<circle cx="66.5" cy="97.5" r="1.5" fill="#C2AEF0"/>
<circle cx="95.5" cy="113.5" r="1.5" fill="#C2AEF0"/>
<circle cx="109.5" cy="103.5" r="1.5" fill="#7352BA"/>
<circle cx="120.5" cy="118.5" r="1.5" fill="#7352BA"/>
<circle cx="133.5" cy="102.5" r="1.5" fill="#7352BA"/>
<circle cx="39.5" cy="43.5" r="1.5" fill="#7352BA"/>
<circle cx="55.5" cy="105.5" r="1.5" fill="#7352BA"/>
<circle cx="53.5" cy="17.5" r="1.5" fill="#C2AEF0"/>
<circle cx="48.5" cy="121.5" r="1.5" fill="#C2AEF0"/>
<circle cx="38.5" cy="108.5" r="1.5" fill="#7352BA"/>
<circle cx="19.5" cy="52.5" r="1.5" fill="#7352BA"/>
<circle cx="19.5" cy="104.5" r="1.5" fill="#C2AEF0"/>
<circle cx="78.5" cy="82.5" r="1.5" fill="#7352BA"/>
<circle cx="67.5" cy="56.5" r="1.5" fill="#7352BA"/>
<circle cx="76.5" cy="134.5" r="1.5" fill="#C2AEF0"/>
<circle cx="84.5" cy="122.5" r="1.5" fill="#7352BA"/>
<circle cx="61.5" cy="128.5" r="1.5" fill="#7352BA"/>
<circle cx="90.5" cy="32.5" r="1.5" fill="#7352BA"/>
<circle cx="85.5" cy="11.5" r="1.5" fill="#7352BA"/>
<circle cx="133.5" cy="62.5" r="1.5" fill="#7352BA"/>
<circle cx="37.5" cy="20.5" r="1.5" fill="#7352BA"/>
<circle cx="32.5" cy="123.5" r="1.5" fill="#7352BA"/>
<circle cx="47.5" cy="137.5" r="1.5" fill="#7352BA"/>
<circle cx="93.5" cy="139.5" r="1.5" fill="#7352BA"/>
<circle cx="111.5" cy="134.5" r="1.5" fill="#C2AEF0"/>
<circle cx="130.5" cy="85.5" r="1.5" fill="#C2AEF0"/>
<circle cx="50.5" cy="89.5" r="1.5" fill="#7352BA"/>
<circle cx="35.3012" cy="60.5019" r="2.50193" fill="#7352BA"/>
<line x1="6.74195" y1="77.5717" x2="35.3211" y2="60.3517" stroke="#7352BA"/>
<line x1="7.08649" y1="77.5075" x2="35.6656" y2="82.5268" stroke="#7352BA"/>
<line x1="63.3784" y1="82.9633" x2="35.0232" y2="82.9633" stroke="#7352BA"/>
<line x1="7.24953" y1="77.5667" x2="35.2727" y2="93.7057" stroke="#7352BA"/>
<line x1="6.89562" y1="77.511" x2="35.4748" y2="71.4106" stroke="#7352BA"/>
<line x1="62.8224" y1="71.8436" x2="35.0232" y2="71.8436" stroke="#7352BA"/>
<line x1="62.9374" y1="70.857" x2="91.115" y2="77.5134" stroke="#7352BA"/>
<line x1="118.607" y1="66.248" x2="90.8073" y2="77.3677" stroke="#7352BA"/>
<line x1="118.235" y1="88.4874" x2="90.4359" y2="77.3677" stroke="#7352BA"/>
<line x1="118.977" y1="77.4035" x2="90.6216" y2="77.4035" stroke="#7352BA"/>
<line x1="118.421" y1="76.9595" x2="146.22" y2="76.9595" stroke="#7352BA"/>
<circle cx="35.3012" cy="93.861" r="2.50193" fill="#C2AEF0"/>
<circle cx="35.3012" cy="71.6216" r="2.50193" fill="#C2AEF0"/>
<circle cx="118.699" cy="66.0618" r="2.50193" fill="#C2AEF0"/>
<circle cx="90.5019" cy="77.5019" r="2.50193" fill="#C2AEF0"/>
<defs>
<linearGradient id="paint0_linear_0_1" x1="77.5" y1="2" x2="77.5" y2="153" gradientUnits="userSpaceOnUse">
<stop/>
<stop offset="1" stop-color="#2D2D41"/>
</linearGradient>
</defs>
</svg>
