<svg width="155" height="155" viewBox="0 0 155 155" fill="none" xmlns="http://www.w3.org/2000/svg">
<circle cx="77.5" cy="77.5" r="76.5" fill="url(#paint0_linear_0_1)" stroke="#7352BA" stroke-width="2"/>
<circle cx="7.50193" cy="77.1815" r="2.50193" fill="#7352BA"/>
<circle cx="35.0232" cy="93.583" r="2.22394" fill="#7352BA"/>
<circle cx="35.3012" cy="82.7413" r="2.50193" fill="#7352BA"/>
<circle cx="63.1004" cy="82.7413" r="2.50193" fill="#7352BA"/>
<circle cx="63.1004" cy="71.6216" r="2.50193" fill="#7352BA"/>
<circle cx="118.699" cy="77.1815" r="2.50193" fill="#7352BA"/>
<circle cx="146.498" cy="77.1815" r="2.50193" fill="#7352BA"/>
<circle cx="118.699" cy="88.3012" r="2.50193" fill="#7352BA"/>
<circle cx="107.5" cy="53.5" r="1.5" fill="#7352BA"/>
<circle cx="78.5" cy="40.5" r="1.5" fill="#7352BA"/>
<circle cx="103.5" cy="40.5" r="1.5" fill="#7352BA"/>
<circle cx="83.5" cy="56.5" r="1.5" fill="#C2AEF0"/>
<circle cx="73.5" cy="19.5" r="1.5" fill="#7352BA"/>
<circle cx="117.697" cy="25.0598" r="1.5" fill="#7352BA"/>
<circle cx="50.5" cy="32.5" r="1.5" fill="#7352BA"/>
<circle cx="95.5" cy="20.5" r="1.5" fill="#C2AEF0"/>
<circle cx="57.5" cy="48.5" r="1.5" fill="#C2AEF0"/>
<circle cx="29.5" cy="35.5" r="1.5" fill="#C2AEF0"/>
<circle cx="102.5" cy="125.5" r="1.5" fill="#7352BA"/>
<circle cx="87.5" cy="97.5" r="1.5" fill="#7352BA"/>
<circle cx="130.5" cy="50.5" r="1.5" fill="#7352BA"/>
<circle cx="120.5" cy="37.5" r="1.5" fill="#C2AEF0"/>
<circle cx="71.5" cy="113.5" r="1.5" fill="#7352BA"/>
<circle cx="66.5" cy="97.5" r="1.5" fill="#C2AEF0"/>
<circle cx="95.5" cy="113.5" r="1.5" fill="#C2AEF0"/>
<circle cx="109.5" cy="103.5" r="1.5" fill="#7352BA"/>
<circle cx="120.5" cy="118.5" r="1.5" fill="#7352BA"/>
<circle cx="133.5" cy="102.5" r="1.5" fill="#7352BA"/>
<circle cx="39.5" cy="43.5" r="1.5" fill="#7352BA"/>
<circle cx="55.5" cy="105.5" r="1.5" fill="#7352BA"/>
<circle cx="53.5" cy="17.5" r="1.5" fill="#C2AEF0"/>
<circle cx="48.5" cy="121.5" r="1.5" fill="#C2AEF0"/>
<circle cx="38.5" cy="108.5" r="1.5" fill="#7352BA"/>
<circle cx="19.5" cy="52.5" r="1.5" fill="#7352BA"/>
<circle cx="19.5" cy="104.5" r="1.5" fill="#C2AEF0"/>
<circle cx="78.5" cy="82.5" r="1.5" fill="#7352BA"/>
<circle cx="67.5" cy="56.5" r="1.5" fill="#7352BA"/>
<circle cx="76.5" cy="134.5" r="1.5" fill="#C2AEF0"/>
<circle cx="84.5" cy="122.5" r="1.5" fill="#7352BA"/>
<circle cx="61.5" cy="128.5" r="1.5" fill="#7352BA"/>
<circle cx="90.5" cy="32.5" r="1.5" fill="#7352BA"/>
<circle cx="85.5" cy="11.5" r="1.5" fill="#7352BA"/>
<circle cx="133.5" cy="62.5" r="1.5" fill="#7352BA"/>
<circle cx="37.5" cy="20.5" r="1.5" fill="#7352BA"/>
<circle cx="32.5" cy="123.5" r="1.5" fill="#7352BA"/>
<circle cx="47.5" cy="137.5" r="1.5" fill="#7352BA"/>
<circle cx="93.5" cy="139.5" r="1.5" fill="#7352BA"/>
<circle cx="111.5" cy="134.5" r="1.5" fill="#C2AEF0"/>
<circle cx="130.5" cy="85.5" r="1.5" fill="#C2AEF0"/>
<circle cx="50.5" cy="89.5" r="1.5" fill="#7352BA"/>
<circle cx="35.3012" cy="60.5019" r="2.50193" fill="#7352BA"/>
<line x1="6.74195" y1="77.5717" x2="35.3211" y2="60.3517" stroke="#7352BA"/>
<line x1="7.08649" y1="77.5075" x2="35.6656" y2="82.5268" stroke="#7352BA"/>
<line x1="63.3784" y1="82.9633" x2="35.0232" y2="82.9633" stroke="#7352BA"/>
<line x1="7.24953" y1="77.5667" x2="35.2727" y2="93.7057" stroke="#7352BA"/>
<line x1="6.89562" y1="77.511" x2="35.4748" y2="71.4106" stroke="#7352BA"/>
<line x1="62.8224" y1="71.8436" x2="35.0232" y2="71.8436" stroke="#7352BA"/>
<line x1="62.9374" y1="70.857" x2="91.115" y2="77.5134" stroke="#7352BA"/>
<line x1="118.607" y1="66.248" x2="90.8073" y2="77.3677" stroke="#7352BA"/>
<line x1="118.235" y1="88.4874" x2="90.4359" y2="77.3677" stroke="#7352BA"/>
<line x1="118.977" y1="77.4035" x2="90.6216" y2="77.4035" stroke="#7352BA"/>
<line x1="118.421" y1="76.9595" x2="146.22" y2="76.9595" stroke="#7352BA"/>
<circle cx="35.3012" cy="93.861" r="2.50193" fill="#C2AEF0"/>
<circle cx="35.3012" cy="71.6216" r="2.50193" fill="#C2AEF0"/>
<circle cx="118.699" cy="66.0618" r="2.50193" fill="#C2AEF0"/>
<circle cx="90.5019" cy="77.5019" r="2.50193" fill="#C2AEF0"/>
<defs>
<linearGradient id="paint0_linear_0_1" x1="77.5" y1="2" x2="77.5" y2="153" gradientUnits="userSpaceOnUse">
<stop/>
<stop offset="1" stop-color="#2D2D41"/>
</linearGradient>
</defs>
</svg>
